<?xml version="1.0" encoding="UTF-8"?>
<svg id="Layer_1" data-name="Layer 1" xmlns="http://www.w3.org/2000/svg" viewBox="0 0 976.05 868.07">
  <defs>
    <style>
      .cls-1 {
        fill: #42c0ff;
      }

      .cls-2 {
        fill: #0af;
      }

      .cls-3 {
        fill: #ec6941;
      }
    </style>
  </defs>
  <g>
    <path class="cls-2" d="m400.74,30.73C425.82,12.68,456.09,2.03,486.93.27c26.71-1.54,53.82,3.42,78.15,14.62,39.28,17.79,70.89,51.66,85.9,92.09-17.67.06-35.34,0-53.02.03-1.38.15-2.82-.24-3.28-1.69-15.93-26.5-43.02-46.07-73.29-52.54-24.23-5.52-50.23-2.71-72.77,7.75-21.14,9.76-39.41,26.03-50.97,46.29-18.5.42-37.02.12-55.52.15,11.44-30.46,32.1-57.37,58.61-76.24Z"/>
    <path class="cls-2" d="m655.43,359.66c12.24-2.14,25.21.52,35.63,7.28,6.81,4.37,12.01,10.67,17.81,16.21,9.14,8.82,15.04,21.12,15.46,33.88.73,13.87-4.68,27.95-14.57,37.72-12,12-23.97,24.04-36.03,35.99-.5.78-2.49,1.86-1.25,2.83,9.56,9.76,19.32,19.33,28.95,29.03,5.94,6.07,12.62,11.75,16.45,19.49,8.27,15.22,7.76,34.73-1.36,49.47-3.73,6.38-9.34,11.28-14.46,16.49-5.49,5.56-10.99,11.37-18.11,14.86-14.54,7.75-32.94,7.52-47.31-.52-7.45-3.87-13-10.31-18.9-16.1-25.32-25.34-50.67-50.66-75.99-76.01-9.07-8.95-14.47-21.46-14.72-34.2-.43-13.48,4.97-27.02,14.54-36.53,7.03-6.97,13.8-14.23,21.49-20.5,21.88-21.78,43.67-43.66,65.52-65.47,7.16-7.34,16.77-12.16,26.85-13.92Z"/>
    <path class="cls-2" d="m318.37,370.33c13.86-.64,27.76-.1,41.64-.29,13.23-.4,26.61,4.56,36.11,13.83,9.88,9.21,15.57,22.63,15.54,36.12,0,51.98.04,103.97-.02,155.95-.1,20.44-14.26,39.74-33.62,46.18-5.76,2.02-11.9,2.84-17.99,2.76-12.36-.03-24.72.04-37.08-.04-12.76-.1-25.35-5.37-34.4-14.37-9.43-9.21-14.96-22.28-14.88-35.48v-154.97c-.02-11.76,4.22-23.55,11.96-32.44,8.2-9.62,20.14-16.01,32.74-17.25Z"/>
  </g>
  <path class="cls-1" d="m138.38,122.36c1.18-.26,2.38-.39,3.59-.37,223.02.06,446.04-.02,669.06.04,4.83.72,10.26,1.41,13.78,5.19,3.78,3.51,4.46,8.95,5.19,13.78.03,13.67.03,27.35,0,41.02-.73,4.83-1.41,10.27-5.19,13.78-3.52,3.78-8.96,4.47-13.78,5.19-219.34.05-438.67,0-658.01.02-4.37.05-8.81-.39-13.07.79-15.45.47-30.81,6.34-42.14,16.97-9.7,9.68-16.24,22.59-17.76,36.26,0,2.69-1.07,5.23-1.04,7.92.03,155.04,0,310.07.02,465.11.96,5.68,1.15,11.51,2.91,17.06,5.18,18.72,20.11,34.47,38.67,40.32,5.92,2.16,12.21,2.6,18.37,3.55,224.01.06,448.03-.02,672.05.04,5.54.68,11.76,1.88,15.21,6.77,3.7,5.61,3.99,12.69,3.78,19.21-.03,11.34.04,22.67-.02,34.01-.69,5.54-1.88,11.76-6.77,15.21-5.61,3.7-12.7,3.99-19.22,3.78H139.02c-3.78-.1-7.66.41-11.35-.64-30.82-2.3-60.62-15.8-83.12-36.95-24.26-22.32-39.86-53.66-43.5-86.38.31-3.4-1.02-6.61-1.05-9.98.05-159.36,0-318.72.03-478.08,0-1.44.42-2.82.72-4.2,1.68-27.18,12.2-53.72,28.9-75.2,22.64-29.22,57.33-49.03,94.19-52.8,4.74-1.46,9.78-.08,14.54-1.42Z"/>
  <g>
    <path class="cls-3" d="m863.35,128.31c5.04-1.01,10.36-.48,15.23,1.18,31.04,9.69,58.21,30.89,75.54,58.36,12.56,19.92,20.05,43.11,21.24,66.63.91,5.46.61,11.02.66,16.53.01,127,0,254,0,381-.15,8.86.87,18.11-2.49,26.54-1.97,5.1-7.31,7.85-12.47,8.53-7.92,1.64-16.03.67-24.04.93-9.96-.32-20.27,1.16-29.86-2.2-4.22-1.47-7.29-5.16-8.45-9.4-2.65-9.25-1.42-18.93-1.69-28.4v-371c.21-9.58-.38-19.23-2.37-28.62-2.76-11.81-9.1-22.8-18.08-30.96-6.01-5.65-13.91-9.44-18.35-16.62-3.26-5.3-3.63-11.7-4.18-17.73-.01-12.38-.08-24.76.03-37.14.51-6.69,1.82-15.33,9.28-17.63Z"/>
    <path class="cls-3" d="m914.43,705.53c7.47-1.08,15.07-.27,22.59-.52,9.85.3,20.14-1.19,29.54,2.49,5.75,2.22,8.37,8.55,8.74,14.31,1.49,6.73-.21,13.5-.32,20.26-3.73,40.06-25.97,78.02-59.13,100.82-12.82,8.85-27.03,15.97-42.21,19.68-6.02,1.44-13.62.56-16.79-5.49-4.08-8.76-2.52-18.72-2.83-28.07.35-11.38-1.15-23.01,1.94-34.12,1.91-6.89,7.71-11.62,13.18-15.74,8.84-6.49,16.72-14.68,21.28-24.76,4.81-9.72,5.82-20.67,6.8-31.31.71-4.55,1.76-9.39,5.06-12.82,3.23-3.15,7.82-4.16,12.15-4.73Z"/>
  </g>
</svg>